<svg xmlns="http://www.w3.org/2000/svg" viewBox="0 0 88.21 89.53"><g id="Layer_2" data-name="Layer 2"><g id="Layer_1-2" data-name="Layer 1"><path d="M88.05,37.81a1.23,1.23,0,0,0-.27-1.54,30.56,30.56,0,0,0-7.55-4.65A30.61,30.61,0,0,0,83,23.2a1.22,1.22,0,0,0-.78-1.35,30.28,30.28,0,0,0-8.69-1.79,30.59,30.59,0,0,0-.25-8.87,1.22,1.22,0,0,0-1.2-1,29.74,29.74,0,0,0-8.78,1.29,30.2,30.2,0,0,0-3.27-8.25,1.21,1.21,0,0,0-1.46-.53,30.1,30.1,0,0,0-7.81,4.21A30.92,30.92,0,0,0,44.89.28a1.25,1.25,0,0,0-1.57,0,30.92,30.92,0,0,0-5.89,6.63,30.27,30.27,0,0,0-7.8-4.21,1.21,1.21,0,0,0-1.47.53,30.2,30.2,0,0,0-3.27,8.25,29.74,29.74,0,0,0-8.78-1.29,1.22,1.22,0,0,0-1.2,1,30.59,30.59,0,0,0-.25,8.87A30.19,30.19,0,0,0,6,21.85a1.22,1.22,0,0,0-.78,1.35A30.61,30.61,0,0,0,8,31.62,30.56,30.56,0,0,0,.43,36.27a1.23,1.23,0,0,0-.27,1.54,30.58,30.58,0,0,0,5.51,7A30.61,30.61,0,0,0,.16,51.72a1.23,1.23,0,0,0,.27,1.54A30.56,30.56,0,0,0,8,57.91a30.72,30.72,0,0,0-2.79,8.42A1.22,1.22,0,0,0,6,67.68a30.19,30.19,0,0,0,8.69,1.79,30.59,30.59,0,0,0,.25,8.87,1.22,1.22,0,0,0,1.2,1,30.32,30.32,0,0,0,8.78-1.28,30.23,30.23,0,0,0,3.27,8.24,1.2,1.2,0,0,0,1.47.53,30.27,30.27,0,0,0,7.8-4.21,30.92,30.92,0,0,0,5.89,6.63,1.24,1.24,0,0,0,1.57,0,30.92,30.92,0,0,0,5.89-6.63,30.27,30.27,0,0,0,7.8,4.21,1.2,1.2,0,0,0,1.47-.53,30.23,30.23,0,0,0,3.27-8.24,30.29,30.29,0,0,0,8.78,1.28,1.22,1.22,0,0,0,1.2-1,30.59,30.59,0,0,0,.25-8.87,30.28,30.28,0,0,0,8.69-1.79A1.22,1.22,0,0,0,83,66.33a30.72,30.72,0,0,0-2.79-8.42,30.56,30.56,0,0,0,7.55-4.65,1.23,1.23,0,0,0,.27-1.54,30.61,30.61,0,0,0-5.51-6.95A30.58,30.58,0,0,0,88.05,37.81Z"/></g></g></svg>