<svg xmlns="http://www.w3.org/2000/svg" viewBox="0 0 88.32 89.64"><defs><style>.cls-1{fill:#05cdff;}.cls-2,.cls-3{fill:none;}.cls-2{stroke:#0073aa;stroke-linejoin:round;stroke-width:2.55px;}.cls-3{stroke:#fff;stroke-miterlimit:10;stroke-width:1.34px;}</style></defs><g id="Layer_2" data-name="Layer 2"><g id="Layer_1-2" data-name="Layer 1"><path class="cls-1" d="M50.72,10.37a6.56,6.56,0,0,1-13.12,0c0-3.62,6.56-9.09,6.56-9.09S50.72,6.75,50.72,10.37Z"/><path class="cls-1" d="M50.72,79.28a6.56,6.56,0,1,0-13.12,0c0,3.62,6.56,9.09,6.56,9.09S50.72,82.9,50.72,79.28Z"/><path class="cls-1" d="M38.54,10.2a6.56,6.56,0,1,1-12.33,4.49C25,11.29,29.27,3.9,29.27,3.9S37.3,6.8,38.54,10.2Z"/><path class="cls-1" d="M62.11,75a6.56,6.56,0,1,0-12.33,4.49c1.24,3.41,9.27,6.3,9.27,6.3S63.35,78.36,62.11,75Z"/><path class="cls-1" d="M27,14.21a6.56,6.56,0,1,1-10,8.44c-2.33-2.78-.82-11.19-.82-11.19S24.71,11.44,27,14.21Z"/><path class="cls-1" d="M71.33,67a6.56,6.56,0,1,0-10,8.43c2.33,2.78,10.87,2.75,10.87,2.75S73.66,69.77,71.33,67Z"/><path class="cls-1" d="M17.6,21.91A6.56,6.56,0,0,1,11,33.28C7.9,31.47,6.45,23.05,6.45,23.05S14.47,20.1,17.6,21.91Z"/><path class="cls-1" d="M77.28,56.37a6.56,6.56,0,0,0-6.56,11.36c3.14,1.81,11.15-1.13,11.15-1.13S80.42,58.18,77.28,56.37Z"/><path class="cls-1" d="M11.37,32.38A6.56,6.56,0,0,1,9.09,45.3c-3.57-.63-7.81-8-7.81-8S7.8,31.75,11.37,32.38Z"/><path class="cls-1" d="M79.23,44.34A6.56,6.56,0,0,0,77,57.27c3.57.63,10.1-4.89,10.1-4.89S82.8,45,79.23,44.34Z"/><path class="cls-1" d="M9.09,44.34a6.56,6.56,0,0,1,2.28,12.93C7.8,57.9,1.28,52.38,1.28,52.38S5.52,45,9.09,44.34Z"/><path class="cls-1" d="M77,32.38A6.56,6.56,0,0,0,79.23,45.3c3.57-.63,7.82-8,7.82-8S80.52,31.75,77,32.38Z"/><path class="cls-1" d="M11,56.37A6.56,6.56,0,0,1,17.6,67.73C14.47,69.54,6.45,66.6,6.45,66.6S7.9,58.18,11,56.37Z"/><path class="cls-1" d="M70.72,21.91a6.56,6.56,0,0,0,6.56,11.37c3.14-1.81,4.59-10.23,4.59-10.23S73.86,20.1,70.72,21.91Z"/><path class="cls-1" d="M17,67A6.56,6.56,0,0,1,27,75.43c-2.33,2.78-10.87,2.75-10.87,2.75S14.66,69.77,17,67Z"/><path class="cls-1" d="M61.28,14.21a6.56,6.56,0,1,0,10,8.44c2.33-2.78.82-11.19.82-11.19S63.61,11.44,61.28,14.21Z"/><path class="cls-1" d="M26.21,75a6.56,6.56,0,0,1,12.33,4.49c-1.24,3.41-9.27,6.3-9.27,6.3S25,78.36,26.21,75Z"/><path class="cls-1" d="M49.78,10.2a6.56,6.56,0,1,0,12.33,4.49c1.24-3.4-3.06-10.79-3.06-10.79S51,6.8,49.78,10.2Z"/><path class="cls-2" d="M80.49,44.82c3.24-1.78,6.56-7.56,6.56-7.56S82,33,78.3,32.4c2.43-2.78,3.57-9.35,3.57-9.35s-6.26-2.3-9.88-1.58c1.34-3.44.16-10,.16-10s-6.67,0-9.82,1.9c.07-3.69-3.28-9.46-3.28-9.46S52.78,6.17,50.47,9c-1.19-3.49-6.31-7.76-6.31-7.76S39,5.55,37.85,9C35.54,6.17,29.27,3.9,29.27,3.9S25.92,9.67,26,13.36c-3.16-1.91-9.83-1.9-9.83-1.9s-1.18,6.57.16,10c-3.62-.72-9.88,1.58-9.88,1.58S7.59,29.62,10,32.4c-3.65.56-8.74,4.86-8.74,4.86S4.59,43,7.83,44.82c-3.24,1.78-6.55,7.56-6.55,7.56s5.09,4.3,8.74,4.87C7.59,60,6.45,66.6,6.45,66.6s6.26,2.29,9.88,1.58c-1.34,3.44-.16,10-.16,10s6.67,0,9.83-1.89c-.08,3.69,3.27,9.45,3.27,9.45s6.27-2.26,8.58-5.14c1.19,3.5,6.31,7.77,6.31,7.77s5.12-4.27,6.31-7.77c2.31,2.88,8.58,5.14,8.58,5.14S62.4,80,62.33,76.29c3.15,1.91,9.82,1.89,9.82,1.89s1.18-6.56-.16-10c3.62.71,9.88-1.58,9.88-1.58S80.73,60,78.3,57.25c3.65-.57,8.75-4.87,8.75-4.87S83.73,46.6,80.49,44.82ZM62.09,66.19a6.55,6.55,0,0,0-2.31,5.69,6.56,6.56,0,0,0-10.2,3.71,6.54,6.54,0,0,0-10.84,0,6.56,6.56,0,0,0-10.2-3.71,6.56,6.56,0,0,0-8.31-7,6.56,6.56,0,0,0-5.42-9.39,6.57,6.57,0,0,0-1.89-10.69,6.56,6.56,0,0,0,1.89-10.68,6.57,6.57,0,0,0,5.42-9.4,6.55,6.55,0,0,0,8.31-7,6.57,6.57,0,0,0,10.2-3.71,6.55,6.55,0,0,0,10.84,0,6.57,6.57,0,0,0,10.2,3.71,6.55,6.55,0,0,0,8.31,7,6.56,6.56,0,0,0,5.43,9.4A6.55,6.55,0,0,0,75.4,44.82a6.56,6.56,0,0,0-1.88,10.69,6.56,6.56,0,0,0-5.43,9.39A6.55,6.55,0,0,0,62.09,66.19Z"/><circle class="cls-1" cx="44.16" cy="44.82" r="33.62" transform="matrix(0.16, -0.99, 0.99, 0.16, -7.22, 81.14)"/><circle class="cls-2" cx="44.16" cy="44.82" r="25.75" transform="translate(-14.67 22.49) rotate(-24.64)"/><circle class="cls-3" cx="44.16" cy="44.82" r="29.96" transform="matrix(0.29, -0.96, 0.96, 0.29, -11.46, 74.24)"/></g></g></svg>